<svg xmlns="http://www.w3.org/2000/svg" width="33.328" height="33.328" viewBox="0 0 33.328 33.328">
  <g id="Group_4" data-name="Group 4" transform="translate(-43.164 -138.164)">
    <circle id="Ellipse_6" data-name="Ellipse 6" cx="16.664" cy="16.664" r="16.664" transform="translate(43.164 138.164)" fill="#ebebeb"/>
    <g id="noun_account_275225" transform="translate(52.118 146.621)">
      <g id="Group_3" data-name="Group 3" transform="translate(0 0)">
        <g id="Group_2" data-name="Group 2">
          <path id="Path_6" data-name="Path 6" d="M56.8,416.513a4.257,4.257,0,1,0-4.257-4.257A4.257,4.257,0,0,0,56.8,416.513ZM49,423.962a.355.355,0,0,0,.355.355h14.9a.355.355,0,0,0,.355-.355v-.709c0-2.87-1.918-5.321-5.676-5.321H54.676c-3.757,0-5.676,2.451-5.676,5.321Z" transform="translate(-49 -408)" fill="#fff" fill-rule="evenodd"/>
        </g>
      </g>
    </g>
  </g>
</svg>
